<mxfile host="app.diagrams.net" agent="Mozilla/5.0 (Windows NT 10.0; Win64; x64) AppleWebKit/537.36 (KHTML, like Gecko) Chrome/131.0.0.0 Safari/537.36" version="25.0.3">
  <diagram name="Страница-1" id="G0P-BRtEfRtsi0_X5pPk">
    <mxGraphModel dx="1419" dy="294" grid="1" gridSize="10" guides="1" tooltips="1" connect="1" arrows="1" fold="1" page="1" pageScale="1" pageWidth="827" pageHeight="1169" math="0" shadow="0">
      <root>
        <mxCell id="0" />
        <mxCell id="1" parent="0" />
        <mxCell id="I0YXrE_9G_kd3UI-cQOQ-1" value="DB" style="shape=cylinder3;whiteSpace=wrap;html=1;boundedLbl=1;backgroundOutline=1;size=15;" vertex="1" parent="1">
          <mxGeometry x="240" y="50" width="60" height="80" as="geometry" />
        </mxCell>
        <mxCell id="I0YXrE_9G_kd3UI-cQOQ-3" value="Staff" style="ellipse;whiteSpace=wrap;html=1;aspect=fixed;" vertex="1" parent="1">
          <mxGeometry x="130" y="270" width="80" height="80" as="geometry" />
        </mxCell>
        <mxCell id="I0YXrE_9G_kd3UI-cQOQ-4" value="Services" style="ellipse;whiteSpace=wrap;html=1;aspect=fixed;" vertex="1" parent="1">
          <mxGeometry x="220" y="263" width="80" height="80" as="geometry" />
        </mxCell>
        <mxCell id="I0YXrE_9G_kd3UI-cQOQ-15" value="" style="endArrow=classic;startArrow=classic;html=1;rounded=0;entryX=0.5;entryY=1;entryDx=0;entryDy=0;exitX=0.733;exitY=0.056;exitDx=0;exitDy=0;exitPerimeter=0;entryPerimeter=0;" edge="1" parent="1" source="I0YXrE_9G_kd3UI-cQOQ-4" target="I0YXrE_9G_kd3UI-cQOQ-1">
          <mxGeometry width="50" height="50" relative="1" as="geometry">
            <mxPoint x="410" y="250" as="sourcePoint" />
            <mxPoint x="371.57359312880703" y="218.28427124746202" as="targetPoint" />
          </mxGeometry>
        </mxCell>
        <mxCell id="I0YXrE_9G_kd3UI-cQOQ-16" value="" style="endArrow=classic;startArrow=classic;html=1;rounded=0;entryX=-0.013;entryY=0.864;entryDx=0;entryDy=0;entryPerimeter=0;" edge="1" parent="1" target="I0YXrE_9G_kd3UI-cQOQ-1">
          <mxGeometry width="50" height="50" relative="1" as="geometry">
            <mxPoint x="200" y="270" as="sourcePoint" />
            <mxPoint x="350" y="200" as="targetPoint" />
            <Array as="points">
              <mxPoint x="230" y="260" />
            </Array>
          </mxGeometry>
        </mxCell>
        <mxCell id="I0YXrE_9G_kd3UI-cQOQ-23" value="id&lt;div&gt;name&lt;/div&gt;&lt;div&gt;title&lt;/div&gt;&lt;div&gt;description&lt;/div&gt;&lt;div&gt;role&lt;/div&gt;&lt;div&gt;email&lt;/div&gt;&lt;div&gt;password&lt;/div&gt;" style="text;html=1;align=center;verticalAlign=middle;resizable=0;points=[];autosize=1;strokeColor=none;fillColor=none;" vertex="1" parent="1">
          <mxGeometry x="130" y="350" width="80" height="110" as="geometry" />
        </mxCell>
        <mxCell id="I0YXrE_9G_kd3UI-cQOQ-24" value="id&lt;div&gt;name&lt;/div&gt;&lt;div&gt;description&lt;/div&gt;&lt;div&gt;price&lt;/div&gt;&lt;div&gt;time&lt;/div&gt;" style="text;html=1;align=center;verticalAlign=middle;resizable=0;points=[];autosize=1;strokeColor=none;fillColor=none;" vertex="1" parent="1">
          <mxGeometry x="220" y="335" width="80" height="90" as="geometry" />
        </mxCell>
        <mxCell id="I0YXrE_9G_kd3UI-cQOQ-37" value="Customers" style="ellipse;whiteSpace=wrap;html=1;aspect=fixed;" vertex="1" parent="1">
          <mxGeometry x="310" y="270" width="80" height="80" as="geometry" />
        </mxCell>
        <mxCell id="I0YXrE_9G_kd3UI-cQOQ-38" value="" style="endArrow=classic;startArrow=classic;html=1;rounded=0;entryX=0.993;entryY=0.875;entryDx=0;entryDy=0;entryPerimeter=0;exitX=0.625;exitY=0;exitDx=0;exitDy=0;exitPerimeter=0;" edge="1" parent="1" source="I0YXrE_9G_kd3UI-cQOQ-37" target="I0YXrE_9G_kd3UI-cQOQ-1">
          <mxGeometry width="50" height="50" relative="1" as="geometry">
            <mxPoint x="400" y="290" as="sourcePoint" />
            <mxPoint x="392.0400000000002" y="230.31999999999994" as="targetPoint" />
            <Array as="points">
              <mxPoint x="380" y="250" />
            </Array>
          </mxGeometry>
        </mxCell>
        <mxCell id="I0YXrE_9G_kd3UI-cQOQ-39" value="id&lt;div&gt;name&lt;/div&gt;&lt;div&gt;phone&lt;/div&gt;&lt;div&gt;email&lt;/div&gt;" style="text;html=1;align=center;verticalAlign=middle;resizable=0;points=[];autosize=1;strokeColor=none;fillColor=none;" vertex="1" parent="1">
          <mxGeometry x="320" y="348" width="60" height="70" as="geometry" />
        </mxCell>
        <mxCell id="I0YXrE_9G_kd3UI-cQOQ-47" value="" style="ellipse;whiteSpace=wrap;html=1;" vertex="1" parent="1">
          <mxGeometry x="-40" y="263" width="120" height="80" as="geometry" />
        </mxCell>
        <mxCell id="I0YXrE_9G_kd3UI-cQOQ-48" value="Appointments" style="text;html=1;align=center;verticalAlign=middle;whiteSpace=wrap;rounded=0;" vertex="1" parent="1">
          <mxGeometry x="-20" y="288" width="90" height="30" as="geometry" />
        </mxCell>
        <mxCell id="I0YXrE_9G_kd3UI-cQOQ-49" value="User_id&lt;div&gt;Stylists_id&lt;/div&gt;&lt;div&gt;start_at (datetime)&lt;/div&gt;&lt;div&gt;end_at (datetime)&lt;/div&gt;&lt;div&gt;notes (null)&lt;/div&gt;" style="text;html=1;align=center;verticalAlign=middle;whiteSpace=wrap;rounded=0;" vertex="1" parent="1">
          <mxGeometry x="-30" y="343" width="100" height="97" as="geometry" />
        </mxCell>
        <mxCell id="I0YXrE_9G_kd3UI-cQOQ-53" value="Email to customer for appointmant&#39;s details" style="shape=document;whiteSpace=wrap;html=1;boundedLbl=1;" vertex="1" parent="1">
          <mxGeometry y="140" width="120" height="80" as="geometry" />
        </mxCell>
      </root>
    </mxGraphModel>
  </diagram>
</mxfile>
